HIERARCHY
ROOT Hips
{
  OFFSET 57.8838 95.319 338.509
  CHANNELS 6 Xposition Yposition Zposition Zrotation Xrotation Yrotation
  JOINT LeftUpLeg
  {
    OFFSET 8.64259 1.95398 -2.38835
    CHANNELS 3 Zrotation Xrotation Yrotation
    JOINT LeftLeg
    {
      OFFSET 43.7702 0 0
      CHANNELS 3 Zrotation Xrotation Yrotation
      JOINT LeftFoot
      {
        OFFSET 40.6238 0 0
        CHANNELS 3 Zrotation Xrotation Yrotation
        JOINT LeftToeBase
        {
          OFFSET 12.7242 0 0
          CHANNELS 3 Zrotation Xrotation Yrotation
          End Site
          {
            OFFSET 0 0 0
          }
        }
      }
    }
  }
  JOINT RightUpLeg
  {
    OFFSET -8.2249 1.95398 -2.59336
    CHANNELS 3 Zrotation Xrotation Yrotation
    JOINT RightLeg
    {
      OFFSET 43.5653 0 0
      CHANNELS 3 Zrotation Xrotation Yrotation
      JOINT RightFoot
      {
        OFFSET 40.6238 0 0
        CHANNELS 3 Zrotation Xrotation Yrotation
        JOINT RightToeBase
        {
          OFFSET 12.7242 0 0
          CHANNELS 3 Zrotation Xrotation Yrotation
          End Site
          {
            OFFSET 0 0 0
          }
        }
      }
    }
  }
  JOINT Spine
  {
    OFFSET 0.165834 0.87714 6.61349
    CHANNELS 3 Zrotation Xrotation Yrotation
    JOINT Spine1
    {
      OFFSET 7.38963 1.71661e-005 0
      CHANNELS 3 Zrotation Xrotation Yrotation
      JOINT Spine2
      {
        OFFSET 11.9445 1.14441e-005 0
        CHANNELS 3 Zrotation Xrotation Yrotation
        JOINT Spine3
        {
          OFFSET 14.7254 4.19617e-005 0
          CHANNELS 3 Zrotation Xrotation Yrotation
          JOINT Spine4
          {
            OFFSET 10.9679 0 0
            CHANNELS 3 Zrotation Xrotation Yrotation
            JOINT RightShoulder
            {
              OFFSET 2.46616 -1.6653 3.69651
              CHANNELS 3 Zrotation Xrotation Yrotation
              JOINT RightArm
              {
                OFFSET 13.0012 0 0
                CHANNELS 3 Zrotation Xrotation Yrotation
                JOINT RightForeArm
                {
                  OFFSET 28.7848 1.62311e-005 0
                  CHANNELS 3 Zrotation Xrotation Yrotation
                  JOINT RightHand
                  {
                    OFFSET 26.5688 1.62095e-005 0
                    CHANNELS 3 Zrotation Xrotation Yrotation
                    End Site
                    {
                      OFFSET 0 0 0
                    }
                  }
                }
              }
            }
            JOINT LeftShoulder
            {
              OFFSET 2.38034 -1.29275 -3.7523
              CHANNELS 3 Zrotation Xrotation Yrotation
              JOINT LeftArm
              {
                OFFSET 16.3182 6.07031e-005 0
                CHANNELS 3 Zrotation Xrotation Yrotation
                JOINT LeftForeArm
                {
                  OFFSET 27.0901 0 0
                  CHANNELS 3 Zrotation Xrotation Yrotation
                  JOINT LeftHand
                  {
                    OFFSET 24.5451 1.51738e-005 0
                    CHANNELS 3 Zrotation Xrotation Yrotation
                    End Site
                    {
                      OFFSET 0 0 0
                    }
                  }
                }
              }
            }
            JOINT Neck
            {
              OFFSET 5.0226 -0.0266342 0
              CHANNELS 3 Zrotation Xrotation Yrotation
              JOINT Head
              {
                OFFSET 6.69364 2.86102e-005 0
                CHANNELS 3 Zrotation Xrotation Yrotation
                End Site
                {
                  OFFSET 0 0 0
                }
              }
            }
          }
        }
      }
    }
  }
}
MOTION
Frames:	14
Frame Time:	0.0416667
-268.982 93.618 257.282 94.3166 25.5351 90.9931 -173.765 -6.07698 89.5516 -4.11687 5.58828 -2.46051 61.6324 3.09716 12.8597 32.6213 1.52133 1.64137 179.006 2.38035 97.7802 -20.0181 -7.00673 -3.58436 68.6131 -3.70714 11.5219 29.1505 -0.544549 1.76725 1.6502 7.14014 -90.4711 12.6144 3.05336 -1.29828 0.946261 2.99327 -1.4315 -21.6171 3.30225 -0.319703 -1.60443 3.30226 -0.319706 93.1611 -60.7607 -94.2725 20.0076 -4.89709 -11.3569 1.25135 -9.86877 -15.2844 -7.98092 -0.438563 1.29409 -81.3223 -59.2157 92.36 -35.5807 -26.5732 -23.7448 4.63127 75.5099 0.028584 4.51633 -0.254965 -10.7197 6.27621 0.942324 -4.53674 -10.6262 1.04067 10.1797 
-268.823 93.6054 257.308 94.1651 25.7718 91.0955 -173.748 -5.55997 89.6507 -5.00611 4.93979 -2.3284 62.1728 2.92972 12.06 32.334 1.41937 0.862259 179.102 2.62276 97.9986 -20.1877 -5.37892 -3.71522 68.6946 -3.69989 12.0421 28.9309 -0.307088 3.09802 1.65921 7.12578 -90.4439 12.6428 3.08392 -1.24866 0.974812 3.02599 -1.38327 -21.5893 3.31648 -0.26315 -1.57661 3.31648 -0.263155 93.4954 -61.288 -93.7449 19.7788 -4.8773 -11.3837 1.36566 -9.70692 -15.1724 -8.14039 -0.463649 1.53336 -81.4904 -58.4081 92.0836 -36.4595 -26.7191 -23.8534 5.45938 77.5897 0.0332791 6.76763 -0.462382 -11.6997 8.06828 -0.615831 -5.29797 -14.6596 -0.617605 10.09 
-268.656 93.5545 257.541 93.4448 26.1205 91.7171 -173.434 -4.06546 90.161 -6.54163 5.13003 -2.40576 62.7609 3.09573 11.7205 32.6817 1.56924 0.588585 179.43 3.24914 98.5534 -20.0275 -4.58151 -3.6928 68.5792 -3.60448 12.5449 29.0037 -0.389421 2.81106 1.66017 7.06192 -90.4046 12.77 3.10359 -1.17806 1.10205 3.04873 -1.31362 -21.4626 3.314 -0.189882 -1.44992 3.31402 -0.189889 94.1092 -61.8339 -92.8448 19.8093 -5.03756 -11.4562 1.2362 -9.98423 -15.2513 -8.28423 -0.459694 1.35656 -81.497 -56.703 91.9718 -37.8759 -26.2012 -23.9151 6.3182 78.5784 0.0361166 0.74588 -0.0857785 -12.2638 9.0382 0.0382877 -7.67545 -13.7659 0.455352 12.2641 
-268.566 93.5304 257.958 92.6625 26.2705 92.8877 -172.679 -2.18818 91.4138 -8.4974 5.78758 -2.60025 63.3472 3.47023 11.5473 33.1243 1.75179 0.541033 -179.921 3.71153 99.7275 -19.094 -4.04243 -3.6435 68.0126 -3.42386 12.3906 28.8804 -0.218297 2.37712 1.64351 7.01603 -90.4753 12.8629 3.03581 -1.31522 1.19465 2.97502 -1.44765 -21.3683 3.29061 -0.341145 -1.35565 3.2906 -0.341155 94.1227 -61.4924 -92.8692 20.1705 -5.02873 -11.5356 1.12595 -9.89683 -15.8311 -8.46955 -0.500945 1.80177 -81.5485 -56.6032 91.8935 -38.0627 -25.9622 -24.2012 6.73447 82.0729 0.0518593 -10.9159 0.942569 -15.1325 9.81238 -0.178042 -7.57458 -16.1167 0.104145 11.5287 
-268.577 93.4389 258.403 91.5505 26.5549 94.2863 -172.004 0.372732 92.6118 -11.1493 6.43077 -2.79664 64.2446 3.94487 11.1612 33.8115 2.03406 0.454793 -179.04 4.60661 101.088 -18.1465 -2.99631 -3.70061 67.3913 -3.64985 11.8493 29.2083 -0.633482 2.21614 1.60097 6.90818 -90.6212 13.0801 2.87922 -1.59714 1.41122 2.80617 -1.72238 -21.1476 3.22602 -0.657274 -1.13496 3.22602 -0.657276 93.7439 -61.0108 -93.445 19.9459 -5.01347 -11.4003 1.0604 -9.84997 -15.8498 -7.9234 -0.479034 1.97195 -81.5825 -57.9236 91.9269 -37.0943 -26.221 -24.4702 6.65381 82.8001 0.0570652 -7.60478 0.65015 -14.5689 8.69652 0.0945275 -5.72288 -14.5401 0.195252 10.2875 
-268.366 93.2898 258.855 90.171 27.1182 95.8 -171.176 3.14633 94.0067 -13.4865 8.14445 -3.25123 65.1463 4.65877 11.1477 33.905 2.06349 1.38009 -178.01 5.55803 102.589 -17.0734 -2.44998 -3.5956 66.3549 -4.89058 9.73592 31.2767 -3.33139 -0.86621 1.46557 6.82129 -90.7268 13.2521 2.55806 -1.77495 1.58228 2.47747 -1.88583 -20.9697 2.97315 -0.923675 -0.957026 2.97314 -0.923677 93.368 -60.7151 -93.9967 20.1891 -5.10263 -11.5408 1.01082 -9.93219 -15.9086 -8.08646 -0.483885 1.90411 -81.6731 -58.3834 91.83 -36.5119 -26.5668 -24.5761 6.54539 77.707 0.0335919 16.8161 -1.12329 -11.8272 9.17815 0.314816 -5.62606 -13.6778 0.396355 11.2092 
-267.829 93.1073 259.031 89.1953 28.5972 97.4252 -170.75 5.35338 95.3372 -15.9255 10.2438 -3.06821 65.532 5.67199 11.5649 36.4908 3.16236 2.30009 -177.525 5.67424 104.014 -15.6269 -2.12829 -2.99826 65.1213 -6.06041 7.52994 33.9825 -7.18675 -3.05721 1.2666 6.78314 -90.8761 13.3255 2.0902 -2.01805 1.65457 1.99937 -2.10808 -20.888 2.59999 -1.29647 -0.875335 2.59999 -1.29648 93.48 -60.9295 -93.8151 20.0909 -5.428 -11.4096 0.900947 -10.2521 -16.3668 -8.80179 -0.626788 3.23463 -81.9064 -58.4497 91.5123 -35.947 -26.5045 -24.2498 5.76832 73.843 0.0257019 23.0279 -1.44542 -11.3444 9.8873 0.324566 -5.88641 -13.4958 0.446906 11.9083 
-267.005 92.8571 258.975 87.6657 30.16 98.112 -171.523 7.1298 94.934 -17.6093 10.8533 -2.34319 64.4335 7.01859 12.3762 41.5881 5.44529 3.72405 -178.112 6.57164 104.027 -15.9538 -1.23256 -2.63967 65.5556 -6.39682 7.24064 33.9642 -7.14961 -2.93364 1.00209 6.7 -90.8824 13.4852 1.56056 -1.96758 1.81361 1.47246 -2.03433 -20.7221 2.07966 -1.40767 -0.709491 2.07968 -1.40766 91.5014 -61.3463 -96.4336 20.1829 -4.70667 -9.97527 0.655701 -10.5335 -16.5398 -8.48325 -0.627518 3.62254 -81.2984 -57.9511 92.3222 -35.0212 -25.3948 -22.8625 3.84326 70.0755 0.0209873 21.5851 -1.14367 -10.3071 8.61963 0.829316 -5.50612 -12.0137 0.958029 11.8331 
-266.07 91.596 258.545 87.8126 32.4747 97.676 -173.57 11.345 93.4047 -27.6167 10.8419 -0.0205037 61.6125 8.5183 13.4767 49.2073 9.36517 7.11751 179.69 8.55534 103.701 -22.758 -1.75721 -1.85345 68.8422 -7.14827 5.0798 34.5279 -7.84357 -2.09188 0.885443 6.82749 -90.9762 13.2275 1.28655 -2.11469 1.55537 1.19225 -2.16923 -20.9758 1.86253 -1.63041 -0.963195 1.86256 -1.63041 93.2065 -60.7188 -94.2167 20.3266 -5.61216 -10.0303 0.9439 -10.8869 -15.8484 -9.1996 -0.696507 3.82661 -81.6047 -58.3926 91.9249 -34.2258 -24.2978 -22.122 2.52421 71.1148 0.0220966 11.7976 -0.704251 -10.6576 8.72504 0.73298 -4.67314 -12.0073 0.689104 11.8441 
-264.673 90.1787 257.708 89.3827 35.9151 96.1315 -175.49 21.446 91.7981 -49.2215 9.99648 2.12132 58.2942 4.81804 9.89717 53.037 11.9748 11.0924 177.227 8.87699 102.985 -29.8274 0.469452 -1.26918 74.2391 -7.76222 6.12988 33.1649 -5.85754 -0.399437 0.79709 7.19228 -91.0479 12.4946 1.08473 -2.21928 0.822095 0.986029 -2.26485 -21.7059 1.70147 -1.79087 -1.69323 1.70147 -1.79087 92.5545 -60.5256 -95.1346 19.5674 -5.40087 -10.0083 1.64138 -10.5339 -14.4972 -10.1952 -0.722059 3.18641 -81.4197 -58.5904 92.1915 -34.2265 -22.4232 -22.2118 0.909067 71.5385 0.0225855 4.01453 -0.392346 -12.0781 8.07701 0.275996 -2.96781 -9.98132 0.187062 9.91254 
-262.377 89.8149 255.777 90.6603 38.844 92.3541 -175.663 28.3023 87.851 -55.5739 7.63619 1.55207 56.9588 3.28816 9.80828 51.2004 11.2674 12.4704 174.847 6.0134 99.3006 -30.8647 0.979429 -0.694799 76.8268 -8.50877 6.40605 33.8184 -6.6677 0.358074 0.733816 7.41648 -90.773 12.0484 1.0938 -1.66167 0.376788 1.01963 -1.70819 -22.1568 1.54262 -1.25617 -2.14415 1.54261 -1.25618 92.5247 -60.9424 -95.1117 19.2725 -5.31755 -9.66545 1.88181 -10.0649 -14.29 -10.4655 -0.867816 4.62217 -81.1697 -58.4423 92.5279 -32.8091 -21.0831 -19.9324 -1.29479 70.1743 0.0210876 2.07167 -0.28724 -11.1695 9.22731 -0.621119 -2.65343 -12.5448 -0.705358 7.45086 
-259.764 90.3335 253.144 92.7214 41.2162 87.4567 -179.321 27.3266 83.981 -39.1577 5.20998 0.0222771 56.9963 3.3143 8.6706 48.3191 9.77392 12.8762 172.758 0.993466 95.1205 -28.9445 4.726 -1.16045 78.6939 -8.4654 11.5825 32.4122 -4.77314 1.20425 0.603609 7.69576 -90.3844 11.486 1.02124 -0.869963 -0.184911 0.981977 -0.914064 -22.7223 1.23548 -0.522796 -2.70961 1.23547 -0.522802 93.0283 -61.388 -94.3633 19.5247 -6.06941 -10.1984 1.70664 -9.72051 -15.5427 -11.4448 -1.04726 5.64134 -81.4985 -57.94 92.0445 -33.6573 -23.6907 -19.1499 1.57997 75.8116 0.0291789 8.83722 -0.718134 -12.1939 12.2214 -1.88612 -4.46479 -14.257 -1.72944 9.11182 
-256.712 90.8107 250.291 92.9403 41.6345 85.837 176.411 24.2114 84.2458 -15.1032 3.66238 -0.296771 54.4562 -1.85253 5.2643 36.9372 3.5493 11.3535 171.534 -3.01808 93.0454 -25.5373 5.19066 -1.35069 76.6071 -8.12622 13.1058 35.5571 -8.73035 2.22239 0.506673 7.81511 -90.2428 11.2458 0.895401 -0.572177 -0.425003 0.86935 -0.611039 -22.9623 1.02597 -0.276598 -2.94967 1.02595 -0.276609 92.0053 -61.1074 -95.7905 18.733 -8.28791 -11.3087 0.656854 -9.13723 -18.4027 -10.3537 -0.977526 6.03144 -81.4731 -58.5132 92.1132 -34.6573 -27.7348 -19.031 5.14739 77.7695 0.0333921 4.25293 -0.275792 -10.9026 14.8973 -1.418 -2.78468 -14.5636 -1.50176 7.86177 
-252.536 90.6931 246.567 92.5254 40.1958 86.6017 174.984 23.3598 85.7473 -6.90951 6.39408 0.136423 55.7988 -3.16325 4.83215 33.4084 1.70259 12.1322 170.725 -6.82171 91.4675 -24.49 2.23558 -1.18021 74.477 -6.43422 15.4049 36.2487 -9.7583 1.09884 0.601007 7.86997 -90.2287 11.1369 1.09008 -0.561316 -0.533776 1.0643 -0.608755 -23.0724 1.20838 -0.207712 -3.05972 1.20836 -0.207717 92.0026 -61.4032 -95.7475 17.2326 -9.61369 -13.519 0.152139 -8.16794 -20.7476 -10.8179 -0.95062 5.21994 -81.6025 -58.7236 91.9476 -34.0784 -30.3363 -16.9583 6.83803 76.1488 0.0357132 -1.17953 0.117281 -9.675 18.3737 -1.35597 -3.4489 -16.2531 -1.32082 8.29073 
